<svg width="415" height="50" viewBox="0 0 415 50" fill="none" xmlns="http://www.w3.org/2000/svg">
<rect x="245" width="170" height="49" rx="2" fill="black"/>
<path d="M17.0598 49.6664C9.39624 49.6664 3.19872 43.9354 1.59936 35.4721H7.39704C8.52992 40.8033 12.395 44.3352 17.0598 44.3352C22.591 44.3352 26.3228 39.2039 26.3228 31.5403V3.28496H32.3204V31.5403C32.3204 42.4026 26.1895 49.6664 17.0598 49.6664ZM48.9752 49V3.28496H78.4967V8.61616H54.9728V21.8109H76.0977V27.1421H54.9728V43.6688H78.4967V49H48.9752ZM93.1554 49V3.28496H99.7528L125.409 40.67V3.28496H131.407V49H124.743L99.153 11.6816V49H93.1554ZM168.783 49.6664C155.388 49.6664 146.459 40.2035 146.459 26.1425C146.459 12.0814 155.388 2.61856 168.783 2.61856C179.245 2.61856 187.909 9.6824 190.308 20.1449H184.443C182.378 12.8145 176.113 7.94976 168.783 7.94976C158.987 7.94976 152.456 15.2802 152.456 26.1425C152.456 37.0048 158.987 44.3352 168.783 44.3352C176.58 44.3352 182.977 39.004 184.71 31.0738H190.508C188.309 42.2027 179.579 49.6664 168.783 49.6664ZM214.722 49V33.3396L199.861 3.28496H206.459L217.721 26.5423L228.916 3.28496H235.514L220.719 33.3396V49H214.722Z" fill="black"/>
<path d="M293.66 39V12.932H297.08V35.96H310.494V39H293.66ZM338.385 39L335.383 31.438H323.755L320.753 39H317.105L327.821 12.932H331.317L342.033 39H338.385ZM324.971 28.398H334.167L329.569 16.846L324.971 28.398ZM349.426 39V12.932H360.712C365.348 12.932 368.426 15.554 368.426 19.43C368.426 21.33 367.286 23.382 365.614 24.598C368.54 25.624 370.478 28.436 370.478 31.59C370.478 36.036 367.248 39 362.422 39H349.426ZM352.846 23.496H360.712C363.296 23.496 365.006 21.976 365.006 19.734C365.006 17.492 363.296 15.972 360.712 15.972H352.846V23.496ZM352.846 35.96H362.422C365.196 35.96 367.058 34.098 367.058 31.286C367.058 28.436 365.196 26.536 362.46 26.536H352.846V35.96Z" fill="white"/>
</svg>
